<mxfile host="65bd71144e">
    <diagram name="Page-1" id="Y9u0gpGczGB8y_hTl56O">
        <mxGraphModel dx="1309" dy="1580" grid="1" gridSize="10" guides="1" tooltips="1" connect="1" arrows="1" fold="1" page="1" pageScale="1" pageWidth="850" pageHeight="1100" background="none" math="0" shadow="0">
            <root>
                <mxCell id="0"/>
                <mxCell id="1" parent="0"/>
                <mxCell id="hUHU4sZshg8_5ApoQRsT-1" value="User" style="swimlane;fontStyle=0;childLayout=stackLayout;horizontal=1;startSize=26;fillColor=none;horizontalStack=0;resizeParent=1;resizeParentMax=0;resizeLast=0;collapsible=1;marginBottom=0;whiteSpace=wrap;html=1;" parent="1" vertex="1">
                    <mxGeometry x="70" y="-10" width="140" height="182" as="geometry"/>
                </mxCell>
                <mxCell id="hUHU4sZshg8_5ApoQRsT-2" value="user_id" style="text;strokeColor=none;fillColor=none;align=left;verticalAlign=top;spacingLeft=4;spacingRight=4;overflow=hidden;rotatable=0;points=[[0,0.5],[1,0.5]];portConstraint=eastwest;whiteSpace=wrap;html=1;" parent="hUHU4sZshg8_5ApoQRsT-1" vertex="1">
                    <mxGeometry y="26" width="140" height="26" as="geometry"/>
                </mxCell>
                <mxCell id="hUHU4sZshg8_5ApoQRsT-3" value="name" style="text;strokeColor=none;fillColor=none;align=left;verticalAlign=top;spacingLeft=4;spacingRight=4;overflow=hidden;rotatable=0;points=[[0,0.5],[1,0.5]];portConstraint=eastwest;whiteSpace=wrap;html=1;" parent="hUHU4sZshg8_5ApoQRsT-1" vertex="1">
                    <mxGeometry y="52" width="140" height="26" as="geometry"/>
                </mxCell>
                <mxCell id="2" value="Image" style="text;strokeColor=none;fillColor=none;align=left;verticalAlign=top;spacingLeft=4;spacingRight=4;overflow=hidden;rotatable=0;points=[[0,0.5],[1,0.5]];portConstraint=eastwest;whiteSpace=wrap;html=1;" parent="hUHU4sZshg8_5ApoQRsT-1" vertex="1">
                    <mxGeometry y="78" width="140" height="26" as="geometry"/>
                </mxCell>
                <mxCell id="hUHU4sZshg8_5ApoQRsT-5" value="password" style="text;strokeColor=none;fillColor=none;align=left;verticalAlign=top;spacingLeft=4;spacingRight=4;overflow=hidden;rotatable=0;points=[[0,0.5],[1,0.5]];portConstraint=eastwest;whiteSpace=wrap;html=1;" parent="hUHU4sZshg8_5ApoQRsT-1" vertex="1">
                    <mxGeometry y="104" width="140" height="26" as="geometry"/>
                </mxCell>
                <mxCell id="hUHU4sZshg8_5ApoQRsT-4" value="email" style="text;strokeColor=none;fillColor=none;align=left;verticalAlign=top;spacingLeft=4;spacingRight=4;overflow=hidden;rotatable=0;points=[[0,0.5],[1,0.5]];portConstraint=eastwest;whiteSpace=wrap;html=1;" parent="hUHU4sZshg8_5ApoQRsT-1" vertex="1">
                    <mxGeometry y="130" width="140" height="26" as="geometry"/>
                </mxCell>
                <mxCell id="3" value="created_at" style="text;strokeColor=none;fillColor=none;align=left;verticalAlign=top;spacingLeft=4;spacingRight=4;overflow=hidden;rotatable=0;points=[[0,0.5],[1,0.5]];portConstraint=eastwest;whiteSpace=wrap;html=1;" parent="hUHU4sZshg8_5ApoQRsT-1" vertex="1">
                    <mxGeometry y="156" width="140" height="26" as="geometry"/>
                </mxCell>
                <mxCell id="hUHU4sZshg8_5ApoQRsT-6" value="Task" style="swimlane;fontStyle=0;childLayout=stackLayout;horizontal=1;startSize=26;fillColor=none;horizontalStack=0;resizeParent=1;resizeParentMax=0;resizeLast=0;collapsible=1;marginBottom=0;whiteSpace=wrap;html=1;" parent="1" vertex="1">
                    <mxGeometry x="70" y="360" width="140" height="260" as="geometry"/>
                </mxCell>
                <mxCell id="hUHU4sZshg8_5ApoQRsT-7" value="task_id" style="text;strokeColor=none;fillColor=none;align=left;verticalAlign=top;spacingLeft=4;spacingRight=4;overflow=hidden;rotatable=0;points=[[0,0.5],[1,0.5]];portConstraint=eastwest;whiteSpace=wrap;html=1;" parent="hUHU4sZshg8_5ApoQRsT-6" vertex="1">
                    <mxGeometry y="26" width="140" height="26" as="geometry"/>
                </mxCell>
                <mxCell id="hUHU4sZshg8_5ApoQRsT-8" value="title" style="text;strokeColor=none;fillColor=none;align=left;verticalAlign=top;spacingLeft=4;spacingRight=4;overflow=hidden;rotatable=0;points=[[0,0.5],[1,0.5]];portConstraint=eastwest;whiteSpace=wrap;html=1;" parent="hUHU4sZshg8_5ApoQRsT-6" vertex="1">
                    <mxGeometry y="52" width="140" height="26" as="geometry"/>
                </mxCell>
                <mxCell id="hUHU4sZshg8_5ApoQRsT-9" value="description" style="text;strokeColor=none;fillColor=none;align=left;verticalAlign=top;spacingLeft=4;spacingRight=4;overflow=hidden;rotatable=0;points=[[0,0.5],[1,0.5]];portConstraint=eastwest;whiteSpace=wrap;html=1;" parent="hUHU4sZshg8_5ApoQRsT-6" vertex="1">
                    <mxGeometry y="78" width="140" height="26" as="geometry"/>
                </mxCell>
                <mxCell id="hUHU4sZshg8_5ApoQRsT-10" value="priority" style="text;strokeColor=none;fillColor=none;align=left;verticalAlign=top;spacingLeft=4;spacingRight=4;overflow=hidden;rotatable=0;points=[[0,0.5],[1,0.5]];portConstraint=eastwest;whiteSpace=wrap;html=1;" parent="hUHU4sZshg8_5ApoQRsT-6" vertex="1">
                    <mxGeometry y="104" width="140" height="26" as="geometry"/>
                </mxCell>
                <mxCell id="hUHU4sZshg8_5ApoQRsT-11" value="status" style="text;strokeColor=none;fillColor=none;align=left;verticalAlign=top;spacingLeft=4;spacingRight=4;overflow=hidden;rotatable=0;points=[[0,0.5],[1,0.5]];portConstraint=eastwest;whiteSpace=wrap;html=1;" parent="hUHU4sZshg8_5ApoQRsT-6" vertex="1">
                    <mxGeometry y="130" width="140" height="26" as="geometry"/>
                </mxCell>
                <mxCell id="hUHU4sZshg8_5ApoQRsT-12" value="start_date" style="text;strokeColor=none;fillColor=none;align=left;verticalAlign=top;spacingLeft=4;spacingRight=4;overflow=hidden;rotatable=0;points=[[0,0.5],[1,0.5]];portConstraint=eastwest;whiteSpace=wrap;html=1;" parent="hUHU4sZshg8_5ApoQRsT-6" vertex="1">
                    <mxGeometry y="156" width="140" height="26" as="geometry"/>
                </mxCell>
                <mxCell id="hUHU4sZshg8_5ApoQRsT-20" value="end_date" style="text;strokeColor=none;fillColor=none;align=left;verticalAlign=top;spacingLeft=4;spacingRight=4;overflow=hidden;rotatable=0;points=[[0,0.5],[1,0.5]];portConstraint=eastwest;whiteSpace=wrap;html=1;" parent="hUHU4sZshg8_5ApoQRsT-6" vertex="1">
                    <mxGeometry y="182" width="140" height="26" as="geometry"/>
                </mxCell>
                <mxCell id="hUHU4sZshg8_5ApoQRsT-21" value="finished_date" style="text;strokeColor=none;fillColor=none;align=left;verticalAlign=top;spacingLeft=4;spacingRight=4;overflow=hidden;rotatable=0;points=[[0,0.5],[1,0.5]];portConstraint=eastwest;whiteSpace=wrap;html=1;" parent="hUHU4sZshg8_5ApoQRsT-6" vertex="1">
                    <mxGeometry y="208" width="140" height="26" as="geometry"/>
                </mxCell>
                <mxCell id="4" value="created_at" style="text;strokeColor=none;fillColor=none;align=left;verticalAlign=top;spacingLeft=4;spacingRight=4;overflow=hidden;rotatable=0;points=[[0,0.5],[1,0.5]];portConstraint=eastwest;whiteSpace=wrap;html=1;" parent="hUHU4sZshg8_5ApoQRsT-6" vertex="1">
                    <mxGeometry y="234" width="140" height="26" as="geometry"/>
                </mxCell>
                <mxCell id="hUHU4sZshg8_5ApoQRsT-13" value="Project" style="swimlane;fontStyle=0;childLayout=stackLayout;horizontal=1;startSize=26;fillColor=none;horizontalStack=0;resizeParent=1;resizeParentMax=0;resizeLast=0;collapsible=1;marginBottom=0;whiteSpace=wrap;html=1;" parent="1" vertex="1">
                    <mxGeometry x="650" y="58" width="140" height="234" as="geometry"/>
                </mxCell>
                <mxCell id="hUHU4sZshg8_5ApoQRsT-14" value="project_id" style="text;strokeColor=none;fillColor=none;align=left;verticalAlign=top;spacingLeft=4;spacingRight=4;overflow=hidden;rotatable=0;points=[[0,0.5],[1,0.5]];portConstraint=eastwest;whiteSpace=wrap;html=1;" parent="hUHU4sZshg8_5ApoQRsT-13" vertex="1">
                    <mxGeometry y="26" width="140" height="26" as="geometry"/>
                </mxCell>
                <mxCell id="hUHU4sZshg8_5ApoQRsT-15" value="name" style="text;strokeColor=none;fillColor=none;align=left;verticalAlign=top;spacingLeft=4;spacingRight=4;overflow=hidden;rotatable=0;points=[[0,0.5],[1,0.5]];portConstraint=eastwest;whiteSpace=wrap;html=1;" parent="hUHU4sZshg8_5ApoQRsT-13" vertex="1">
                    <mxGeometry y="52" width="140" height="26" as="geometry"/>
                </mxCell>
                <mxCell id="hUHU4sZshg8_5ApoQRsT-16" value="description" style="text;strokeColor=none;fillColor=none;align=left;verticalAlign=top;spacingLeft=4;spacingRight=4;overflow=hidden;rotatable=0;points=[[0,0.5],[1,0.5]];portConstraint=eastwest;whiteSpace=wrap;html=1;" parent="hUHU4sZshg8_5ApoQRsT-13" vertex="1">
                    <mxGeometry y="78" width="140" height="26" as="geometry"/>
                </mxCell>
                <mxCell id="hUHU4sZshg8_5ApoQRsT-17" value="image" style="text;strokeColor=none;fillColor=none;align=left;verticalAlign=top;spacingLeft=4;spacingRight=4;overflow=hidden;rotatable=0;points=[[0,0.5],[1,0.5]];portConstraint=eastwest;whiteSpace=wrap;html=1;" parent="hUHU4sZshg8_5ApoQRsT-13" vertex="1">
                    <mxGeometry y="104" width="140" height="26" as="geometry"/>
                </mxCell>
                <mxCell id="5" value="start_date" style="text;strokeColor=none;fillColor=none;align=left;verticalAlign=top;spacingLeft=4;spacingRight=4;overflow=hidden;rotatable=0;points=[[0,0.5],[1,0.5]];portConstraint=eastwest;whiteSpace=wrap;html=1;" vertex="1" parent="hUHU4sZshg8_5ApoQRsT-13">
                    <mxGeometry y="130" width="140" height="26" as="geometry"/>
                </mxCell>
                <mxCell id="6" value="end_date" style="text;strokeColor=none;fillColor=none;align=left;verticalAlign=top;spacingLeft=4;spacingRight=4;overflow=hidden;rotatable=0;points=[[0,0.5],[1,0.5]];portConstraint=eastwest;whiteSpace=wrap;html=1;" vertex="1" parent="hUHU4sZshg8_5ApoQRsT-13">
                    <mxGeometry y="156" width="140" height="26" as="geometry"/>
                </mxCell>
                <mxCell id="hUHU4sZshg8_5ApoQRsT-19" value="finished_date" style="text;strokeColor=none;fillColor=none;align=left;verticalAlign=top;spacingLeft=4;spacingRight=4;overflow=hidden;rotatable=0;points=[[0,0.5],[1,0.5]];portConstraint=eastwest;whiteSpace=wrap;html=1;" parent="hUHU4sZshg8_5ApoQRsT-13" vertex="1">
                    <mxGeometry y="182" width="140" height="26" as="geometry"/>
                </mxCell>
                <mxCell id="hUHU4sZshg8_5ApoQRsT-18" value="created_at" style="text;strokeColor=none;fillColor=none;align=left;verticalAlign=top;spacingLeft=4;spacingRight=4;overflow=hidden;rotatable=0;points=[[0,0.5],[1,0.5]];portConstraint=eastwest;whiteSpace=wrap;html=1;" parent="hUHU4sZshg8_5ApoQRsT-13" vertex="1">
                    <mxGeometry y="208" width="140" height="26" as="geometry"/>
                </mxCell>
                <mxCell id="hUHU4sZshg8_5ApoQRsT-35" style="edgeStyle=orthogonalEdgeStyle;rounded=0;orthogonalLoop=1;jettySize=auto;html=1;exitX=0.5;exitY=0;exitDx=0;exitDy=0;curved=0;endArrow=none;startFill=0;strokeColor=default;" parent="1" source="hUHU4sZshg8_5ApoQRsT-50" target="hUHU4sZshg8_5ApoQRsT-1" edge="1">
                    <mxGeometry relative="1" as="geometry">
                        <Array as="points">
                            <mxPoint x="140" y="190"/>
                        </Array>
                    </mxGeometry>
                </mxCell>
                <mxCell id="hUHU4sZshg8_5ApoQRsT-22" value="Assigned" style="swimlane;fontStyle=0;childLayout=stackLayout;horizontal=1;startSize=26;fillColor=none;horizontalStack=0;resizeParent=1;resizeParentMax=0;resizeLast=0;collapsible=1;marginBottom=0;whiteSpace=wrap;html=1;rounded=1;arcSize=39;" parent="1" vertex="1">
                    <mxGeometry x="70" y="236" width="140" height="52" as="geometry"/>
                </mxCell>
                <mxCell id="hUHU4sZshg8_5ApoQRsT-24" value="Note" style="text;strokeColor=none;fillColor=none;align=center;verticalAlign=top;spacingLeft=4;spacingRight=4;overflow=hidden;rotatable=0;points=[[0,0.5],[1,0.5]];portConstraint=eastwest;whiteSpace=wrap;html=1;" parent="hUHU4sZshg8_5ApoQRsT-22" vertex="1">
                    <mxGeometry y="26" width="140" height="26" as="geometry"/>
                </mxCell>
                <mxCell id="hUHU4sZshg8_5ApoQRsT-26" value="Participate" style="swimlane;fontStyle=0;childLayout=stackLayout;horizontal=1;startSize=26;fillColor=none;horizontalStack=0;resizeParent=1;resizeParentMax=0;resizeLast=0;collapsible=1;marginBottom=0;whiteSpace=wrap;html=1;rounded=1;arcSize=39;" parent="1" vertex="1">
                    <mxGeometry x="370" y="110" width="140" height="52" as="geometry"/>
                </mxCell>
                <mxCell id="hUHU4sZshg8_5ApoQRsT-27" value="Role" style="text;strokeColor=none;fillColor=none;align=center;verticalAlign=top;spacingLeft=4;spacingRight=4;overflow=hidden;rotatable=0;points=[[0,0.5],[1,0.5]];portConstraint=eastwest;whiteSpace=wrap;html=1;" parent="hUHU4sZshg8_5ApoQRsT-26" vertex="1">
                    <mxGeometry y="26" width="140" height="26" as="geometry"/>
                </mxCell>
                <mxCell id="hUHU4sZshg8_5ApoQRsT-28" value="Predecessor" style="swimlane;fontStyle=0;childLayout=stackLayout;horizontal=1;startSize=26;fillColor=none;horizontalStack=0;resizeParent=1;resizeParentMax=0;resizeLast=0;collapsible=1;marginBottom=0;whiteSpace=wrap;html=1;rounded=1;arcSize=39;" parent="1" vertex="1">
                    <mxGeometry x="70" y="690" width="140" height="52" as="geometry"/>
                </mxCell>
                <mxCell id="hUHU4sZshg8_5ApoQRsT-34" value="Belong" style="swimlane;fontStyle=0;childLayout=stackLayout;horizontal=1;startSize=26;fillColor=none;horizontalStack=0;resizeParent=1;resizeParentMax=0;resizeLast=0;collapsible=1;marginBottom=0;whiteSpace=wrap;html=1;rounded=1;arcSize=39;" parent="1" vertex="1">
                    <mxGeometry x="370" y="288" width="140" height="52" as="geometry"/>
                </mxCell>
                <mxCell id="hUHU4sZshg8_5ApoQRsT-37" style="edgeStyle=orthogonalEdgeStyle;rounded=0;orthogonalLoop=1;jettySize=auto;html=1;curved=0;endArrow=none;startFill=0;" parent="1" source="hUHU4sZshg8_5ApoQRsT-46" target="hUHU4sZshg8_5ApoQRsT-22" edge="1">
                    <mxGeometry relative="1" as="geometry">
                        <mxPoint x="280" y="316" as="sourcePoint"/>
                        <mxPoint x="280" y="260" as="targetPoint"/>
                        <Array as="points">
                            <mxPoint x="140" y="340"/>
                        </Array>
                    </mxGeometry>
                </mxCell>
                <mxCell id="hUHU4sZshg8_5ApoQRsT-39" style="rounded=0;orthogonalLoop=1;jettySize=auto;html=1;endArrow=none;startFill=0;" parent="1" source="hUHU4sZshg8_5ApoQRsT-48" target="hUHU4sZshg8_5ApoQRsT-34" edge="1">
                    <mxGeometry relative="1" as="geometry">
                        <mxPoint x="150" y="370" as="sourcePoint"/>
                        <mxPoint x="150" y="298" as="targetPoint"/>
                    </mxGeometry>
                </mxCell>
                <mxCell id="hUHU4sZshg8_5ApoQRsT-41" style="rounded=0;orthogonalLoop=1;jettySize=auto;html=1;endArrow=none;startFill=0;" parent="1" source="hUHU4sZshg8_5ApoQRsT-65" target="hUHU4sZshg8_5ApoQRsT-13" edge="1">
                    <mxGeometry relative="1" as="geometry">
                        <mxPoint x="360" y="236" as="sourcePoint"/>
                        <mxPoint x="534" y="138" as="targetPoint"/>
                    </mxGeometry>
                </mxCell>
                <mxCell id="hUHU4sZshg8_5ApoQRsT-42" style="rounded=0;orthogonalLoop=1;jettySize=auto;html=1;endArrow=none;startFill=0;" parent="1" source="hUHU4sZshg8_5ApoQRsT-56" target="hUHU4sZshg8_5ApoQRsT-26" edge="1">
                    <mxGeometry relative="1" as="geometry">
                        <mxPoint x="280" y="259" as="sourcePoint"/>
                        <mxPoint x="454" y="160" as="targetPoint"/>
                    </mxGeometry>
                </mxCell>
                <mxCell id="hUHU4sZshg8_5ApoQRsT-43" style="rounded=0;orthogonalLoop=1;jettySize=auto;html=1;endArrow=none;startFill=0;" parent="1" source="hUHU4sZshg8_5ApoQRsT-54" target="hUHU4sZshg8_5ApoQRsT-13" edge="1">
                    <mxGeometry relative="1" as="geometry">
                        <mxPoint x="340" y="219" as="sourcePoint"/>
                        <mxPoint x="490" y="210" as="targetPoint"/>
                    </mxGeometry>
                </mxCell>
                <mxCell id="hUHU4sZshg8_5ApoQRsT-44" style="rounded=0;orthogonalLoop=1;jettySize=auto;html=1;endArrow=none;startFill=0;curved=1;" parent="1" source="hUHU4sZshg8_5ApoQRsT-55" target="hUHU4sZshg8_5ApoQRsT-6" edge="1">
                    <mxGeometry relative="1" as="geometry">
                        <mxPoint x="380" y="269" as="sourcePoint"/>
                        <mxPoint x="554" y="170" as="targetPoint"/>
                        <Array as="points"/>
                    </mxGeometry>
                </mxCell>
                <mxCell id="hUHU4sZshg8_5ApoQRsT-45" style="rounded=0;orthogonalLoop=1;jettySize=auto;html=1;endArrow=none;startFill=0;curved=1;" parent="1" source="hUHU4sZshg8_5ApoQRsT-53" target="hUHU4sZshg8_5ApoQRsT-6" edge="1">
                    <mxGeometry relative="1" as="geometry">
                        <mxPoint x="880" y="367" as="sourcePoint"/>
                        <mxPoint x="880" y="236" as="targetPoint"/>
                        <Array as="points"/>
                    </mxGeometry>
                </mxCell>
                <mxCell id="hUHU4sZshg8_5ApoQRsT-47" value="" style="edgeStyle=orthogonalEdgeStyle;rounded=0;orthogonalLoop=1;jettySize=auto;html=1;curved=0;endArrow=none;startFill=0;" parent="1" source="hUHU4sZshg8_5ApoQRsT-6" target="hUHU4sZshg8_5ApoQRsT-46" edge="1">
                    <mxGeometry relative="1" as="geometry">
                        <mxPoint x="140" y="360" as="sourcePoint"/>
                        <mxPoint x="140" y="288" as="targetPoint"/>
                        <Array as="points">
                            <mxPoint x="140" y="340"/>
                        </Array>
                    </mxGeometry>
                </mxCell>
                <mxCell id="hUHU4sZshg8_5ApoQRsT-46" value="1,N" style="text;html=1;align=center;verticalAlign=middle;resizable=0;points=[];autosize=1;strokeColor=none;fillColor=none;" parent="1" vertex="1">
                    <mxGeometry x="120" y="322" width="40" height="30" as="geometry"/>
                </mxCell>
                <mxCell id="hUHU4sZshg8_5ApoQRsT-49" value="" style="rounded=0;orthogonalLoop=1;jettySize=auto;html=1;endArrow=none;startFill=0;" parent="1" source="hUHU4sZshg8_5ApoQRsT-6" target="hUHU4sZshg8_5ApoQRsT-48" edge="1">
                    <mxGeometry relative="1" as="geometry">
                        <mxPoint x="210" y="442" as="sourcePoint"/>
                        <mxPoint x="388" y="352" as="targetPoint"/>
                    </mxGeometry>
                </mxCell>
                <mxCell id="hUHU4sZshg8_5ApoQRsT-48" value="1,1" style="text;html=1;align=center;verticalAlign=middle;resizable=0;points=[];autosize=1;strokeColor=none;fillColor=none;" parent="1" vertex="1">
                    <mxGeometry x="220" y="400" width="40" height="30" as="geometry"/>
                </mxCell>
                <mxCell id="hUHU4sZshg8_5ApoQRsT-52" value="" style="edgeStyle=orthogonalEdgeStyle;rounded=0;orthogonalLoop=1;jettySize=auto;html=1;exitX=0.5;exitY=0;exitDx=0;exitDy=0;curved=0;endArrow=none;startFill=0;strokeColor=default;" parent="1" source="hUHU4sZshg8_5ApoQRsT-22" target="hUHU4sZshg8_5ApoQRsT-50" edge="1">
                    <mxGeometry relative="1" as="geometry">
                        <mxPoint x="140" y="236" as="sourcePoint"/>
                        <mxPoint x="140" y="162" as="targetPoint"/>
                        <Array as="points">
                            <mxPoint x="140" y="190"/>
                        </Array>
                    </mxGeometry>
                </mxCell>
                <mxCell id="hUHU4sZshg8_5ApoQRsT-50" value="1,N" style="text;html=1;align=center;verticalAlign=middle;resizable=0;points=[];autosize=1;strokeColor=none;fillColor=none;" parent="1" vertex="1">
                    <mxGeometry x="120" y="190" width="40" height="30" as="geometry"/>
                </mxCell>
                <mxCell id="hUHU4sZshg8_5ApoQRsT-57" value="" style="rounded=0;orthogonalLoop=1;jettySize=auto;html=1;endArrow=none;startFill=0;" parent="1" source="hUHU4sZshg8_5ApoQRsT-1" target="hUHU4sZshg8_5ApoQRsT-56" edge="1">
                    <mxGeometry relative="1" as="geometry">
                        <mxPoint x="210" y="121" as="sourcePoint"/>
                        <mxPoint x="355" y="131" as="targetPoint"/>
                    </mxGeometry>
                </mxCell>
                <mxCell id="hUHU4sZshg8_5ApoQRsT-56" value="0,N" style="text;html=1;align=center;verticalAlign=middle;resizable=0;points=[];autosize=1;strokeColor=none;fillColor=none;" parent="1" vertex="1">
                    <mxGeometry x="240" y="100" width="40" height="30" as="geometry"/>
                </mxCell>
                <mxCell id="hUHU4sZshg8_5ApoQRsT-58" value="" style="rounded=0;orthogonalLoop=1;jettySize=auto;html=1;endArrow=none;startFill=0;" parent="1" source="hUHU4sZshg8_5ApoQRsT-26" target="hUHU4sZshg8_5ApoQRsT-54" edge="1">
                    <mxGeometry relative="1" as="geometry">
                        <mxPoint x="495" y="139" as="sourcePoint"/>
                        <mxPoint x="650" y="146" as="targetPoint"/>
                    </mxGeometry>
                </mxCell>
                <mxCell id="hUHU4sZshg8_5ApoQRsT-54" value="0,N" style="text;html=1;align=center;verticalAlign=middle;resizable=0;points=[];autosize=1;strokeColor=none;fillColor=none;" parent="1" vertex="1">
                    <mxGeometry x="590" y="132" width="40" height="30" as="geometry"/>
                </mxCell>
                <mxCell id="hUHU4sZshg8_5ApoQRsT-62" value="" style="rounded=0;orthogonalLoop=1;jettySize=auto;html=1;endArrow=none;startFill=0;curved=1;" parent="1" source="hUHU4sZshg8_5ApoQRsT-28" target="hUHU4sZshg8_5ApoQRsT-55" edge="1">
                    <mxGeometry relative="1" as="geometry">
                        <mxPoint x="70" y="690" as="sourcePoint"/>
                        <mxPoint x="70" y="574" as="targetPoint"/>
                        <Array as="points">
                            <mxPoint x="30" y="660"/>
                        </Array>
                    </mxGeometry>
                </mxCell>
                <mxCell id="hUHU4sZshg8_5ApoQRsT-55" value="0,N" style="text;html=1;align=center;verticalAlign=middle;resizable=0;points=[];autosize=1;strokeColor=none;fillColor=none;" parent="1" vertex="1">
                    <mxGeometry x="20" y="590" width="40" height="30" as="geometry"/>
                </mxCell>
                <mxCell id="hUHU4sZshg8_5ApoQRsT-53" value="0,N" style="text;html=1;align=center;verticalAlign=middle;resizable=0;points=[];autosize=1;strokeColor=none;fillColor=none;" parent="1" vertex="1">
                    <mxGeometry x="220" y="590" width="40" height="30" as="geometry"/>
                </mxCell>
                <mxCell id="hUHU4sZshg8_5ApoQRsT-64" value="" style="rounded=0;orthogonalLoop=1;jettySize=auto;html=1;endArrow=none;startFill=0;curved=1;" parent="1" source="hUHU4sZshg8_5ApoQRsT-28" target="hUHU4sZshg8_5ApoQRsT-53" edge="1">
                    <mxGeometry relative="1" as="geometry">
                        <mxPoint x="210" y="680" as="sourcePoint"/>
                        <mxPoint x="158" y="610" as="targetPoint"/>
                        <Array as="points">
                            <mxPoint x="260" y="670"/>
                        </Array>
                    </mxGeometry>
                </mxCell>
                <mxCell id="hUHU4sZshg8_5ApoQRsT-66" value="" style="rounded=0;orthogonalLoop=1;jettySize=auto;html=1;endArrow=none;startFill=0;" parent="1" source="hUHU4sZshg8_5ApoQRsT-34" target="hUHU4sZshg8_5ApoQRsT-65" edge="1">
                    <mxGeometry relative="1" as="geometry">
                        <mxPoint x="481" y="300" as="sourcePoint"/>
                        <mxPoint x="650" y="193" as="targetPoint"/>
                    </mxGeometry>
                </mxCell>
                <mxCell id="hUHU4sZshg8_5ApoQRsT-65" value="0,N" style="text;html=1;align=center;verticalAlign=middle;resizable=0;points=[];autosize=1;strokeColor=none;fillColor=none;" parent="1" vertex="1">
                    <mxGeometry x="590" y="190" width="40" height="30" as="geometry"/>
                </mxCell>
            </root>
        </mxGraphModel>
    </diagram>
</mxfile>